<svg width="100" height="100" viewBox="0 0 100 100" fill="none" xmlns="http://www.w3.org/2000/svg">
<path d="M1.20616 7.06299C-0.40938 5.44723 -0.409377 2.82758 1.20616 1.21182C2.82171 -0.403938 5.44102 -0.403938 7.05656 1.21182L98.7696 92.937C100.385 94.5528 100.385 97.1724 98.7696 98.7882C97.154 100.404 94.5347 100.404 92.9192 98.7882L1.20616 7.06299Z" fill="#F1C647"/>
<path d="M92.9325 1.21182C94.548 -0.403941 97.1673 -0.403938 98.7829 1.21182C100.398 2.82758 100.398 5.44724 98.7829 7.06299L7.06985 98.7882C5.45431 100.404 2.835 100.404 1.21946 98.7882C-0.396085 97.1724 -0.396085 94.5528 1.21946 92.937L92.9325 1.21182Z" fill="#F1C647"/>
</svg>
